<?xml version="1.0" standalone="no"?>
<!DOCTYPE svg PUBLIC "-//W3C//DTD SVG 20010904//EN"
 "http://www.w3.org/TR/2001/REC-SVG-20010904/DTD/svg10.dtd">
<svg version="1.0" xmlns="http://www.w3.org/2000/svg"
 width="945.000000pt" height="1181.000000pt" viewBox="0 0 945.000000 1181.000000"
 preserveAspectRatio="xMidYMid meet">

<g transform="translate(0.000000,1181.000000) scale(0.100000,-0.100000)"
fill="#000000" stroke="none">
<path d="M2787 11305 c-101 -16 -268 -70 -359 -116 -424 -211 -636 -597 -589
-1069 20 -199 55 -294 151 -408 93 -112 288 -250 433 -309 34 -13 65 -28 70
-32 4 -4 -7 -38 -24 -76 -105 -232 -183 -548 -209 -845 -24 -279 -2 -672 56
-989 l15 -84 -30 -31 c-50 -52 -71 -110 -71 -202 0 -175 77 -365 217 -530 41
-49 43 -55 68 -190 162 -889 641 -1613 1322 -1997 l121 -69 -9 -41 c-5 -23
-21 -81 -35 -128 l-26 -85 -78 -48 c-83 -50 -256 -115 -380 -141 -41 -9 -130
-19 -198 -22 -122 -6 -123 -6 -151 -38 -55 -63 -171 -552 -171 -722 1 -149 41
-221 117 -210 21 4 179 9 352 13 l314 7 -7 -244 c-7 -249 5 -699 24 -934 26
-308 93 -648 157 -802 132 -313 327 -449 574 -403 215 41 355 241 419 603 23
131 52 371 49 407 -3 35 23 260 30 260 3 -1 19 -21 34 -45 73 -115 237 -175
480 -175 140 0 357 17 372 29 13 11 159 51 186 51 29 0 285 103 400 161 211
105 350 201 460 315 81 85 119 140 169 246 54 113 71 183 77 319 6 122 -10
233 -46 329 -16 41 -16 49 -4 66 30 39 63 114 78 177 l17 64 73 6 c121 9 204
58 245 144 19 40 23 64 23 143 0 160 -55 315 -149 419 -74 82 -87 88 -247 116
-179 31 -403 82 -562 129 -66 19 -154 45 -195 57 l-75 23 -60 104 c-33 58 -86
145 -117 194 -32 49 -58 91 -58 93 0 3 48 55 107 117 212 225 308 343 390 481
36 61 47 71 102 97 176 84 298 211 350 365 11 34 24 112 30 175 5 63 19 140
29 170 11 30 92 200 180 377 236 470 299 628 347 868 27 135 50 419 40 510
-16 158 -65 384 -117 533 -84 247 -189 447 -381 736 -155 232 -289 399 -457
566 -465 467 -975 736 -1565 826 -149 23 -588 27 -730 6 -174 -25 -350 -65
-517 -118 -13 -4 -18 4 -23 43 -45 324 -205 575 -440 688 -49 25 -119 52 -155
60 -92 23 -331 28 -443 10z m407 -75 c43 -11 104 -34 136 -51 74 -40 175 -144
224 -232 68 -121 127 -316 138 -457 l3 -34 -200 -101 c-298 -149 -464 -264
-646 -445 -102 -101 -191 -212 -270 -335 -32 -49 -65 -99 -72 -109 -13 -19
-16 -18 -93 23 -159 86 -307 219 -360 323 -14 28 -37 94 -51 147 -21 80 -26
119 -26 241 -1 197 30 343 106 495 86 174 254 338 445 434 78 39 249 97 323
110 101 16 259 13 343 -9z m1773 -691 c626 -52 1199 -333 1698 -833 164 -164
385 -433 385 -469 0 -5 -51 39 -113 99 -435 421 -975 694 -1547 781 -159 24
-482 24 -640 -1 -507 -78 -942 -295 -1313 -655 -294 -285 -495 -626 -613
-1035 -36 -124 -84 -345 -84 -387 0 -14 -23 -51 -55 -89 -30 -36 -65 -85 -79
-110 -40 -76 -94 -232 -114 -330 l-19 -94 -51 -1 -51 0 -10 60 c-38 219 -45
325 -45 630 0 271 3 328 22 454 27 168 76 367 126 504 41 114 126 297 137 297
4 0 22 26 39 58 56 98 166 253 245 344 457 527 1302 843 2082 777z m509 -538
c584 -100 1107 -377 1525 -808 235 -243 315 -359 407 -593 41 -104 102 -292
102 -315 0 -3 -41 37 -92 90 -277 290 -597 470 -1032 580 -687 174 -1506 124
-2155 -131 -311 -123 -649 -330 -898 -552 -97 -86 -243 -257 -243 -285 0 -18
-1 -18 -32 3 -18 12 -57 33 -86 47 -45 21 -62 24 -107 18 l-53 -6 19 88 c47
218 118 413 224 621 353 696 1007 1160 1767 1257 162 20 494 13 654 -14z m514
-1071 c236 -28 511 -93 706 -166 262 -97 462 -220 629 -388 176 -177 205 -234
205 -410 0 -81 -15 -270 -26 -335 l-6 -35 -33 63 c-71 133 -196 269 -284 309
-63 29 -143 35 -183 13 -23 -12 -48 -48 -48 -69 0 -4 33 -6 72 -4 68 3 78 1
154 -37 106 -53 201 -150 263 -271 l44 -84 -12 -61 c-18 -89 -102 -333 -162
-468 -28 -65 -53 -116 -54 -115 -2 2 2 37 8 79 28 199 -62 299 -258 287 -224
-15 -471 -256 -709 -693 -68 -126 -186 -385 -186 -409 0 -16 76 -31 210 -41
207 -16 554 57 613 128 10 12 16 16 12 8 -4 -7 -11 -66 -16 -131 -10 -143 -34
-221 -97 -314 -118 -176 -368 -304 -782 -400 -345 -80 -676 -109 -970 -87
-144 11 -358 42 -379 55 -5 4 -70 22 -143 40 -74 19 -162 45 -195 58 -61 23
-64 25 -193 193 -179 231 -310 431 -402 610 -137 268 -196 431 -314 862 -96
353 -159 523 -259 705 -21 37 -25 54 -19 83 14 74 173 250 344 382 519 397
1047 598 1715 653 141 11 632 5 755 -10z m-3001 -990 c59 -30 118 -104 177
-225 69 -141 125 -313 214 -650 82 -311 128 -454 200 -614 98 -221 270 -501
459 -749 47 -63 110 -146 139 -187 l52 -73 6 -133 c5 -120 3 -153 -25 -319
-37 -218 -60 -309 -102 -393 -27 -52 -81 -138 -110 -171 -10 -11 -195 94 -314
179 -619 442 -996 1113 -1112 1977 -25 185 -25 685 0 838 25 154 45 226 87
317 82 177 217 260 329 203z m-531 -752 c-5 -128 6 -457 17 -508 5 -25 5 -24
-20 5 -44 51 -122 219 -140 299 -11 48 -16 105 -14 154 6 122 43 166 153 181
5 0 6 -57 4 -131z m4633 -59 c114 -38 135 -148 68 -352 -48 -149 -228 -496
-277 -534 -21 -17 -183 -70 -271 -88 -106 -22 -263 -29 -355 -16 -44 6 -81 13
-83 15 -10 9 121 297 174 384 18 29 18 29 18 -67 0 -85 3 -102 28 -154 40 -81
88 -112 173 -112 53 0 69 4 105 30 57 40 102 101 129 172 93 249 -55 491 -248
403 l-43 -19 20 27 c40 56 135 154 192 197 131 101 275 145 370 114z m-539
-401 c23 -11 48 -60 48 -92 0 -24 -32 -56 -56 -56 -25 0 -74 53 -85 91 -11 34
-10 42 6 59 18 20 46 19 87 -2z m-138 -1380 c-21 -29 -58 -78 -82 -108 -57
-72 -333 -370 -342 -370 -4 0 -34 33 -66 73 -32 39 -103 118 -157 174 -65 66
-95 104 -86 107 8 2 57 9 109 16 185 24 497 101 620 153 19 9 37 14 39 12 2
-2 -14 -28 -35 -57z m-1896 -24 l154 -38 73 -111 c133 -200 286 -355 415 -420
40 -20 75 -29 126 -33 62 -4 79 -1 130 22 75 34 101 59 130 121 38 81 30 206
-20 326 -6 13 0 18 24 21 28 4 40 -5 148 -116 169 -175 324 -384 448 -605 l58
-103 -35 -29 c-19 -16 -78 -59 -133 -96 -477 -319 -1085 -413 -1676 -259 -80
21 -284 87 -341 111 -15 6 -15 11 -3 51 7 25 18 72 24 106 10 53 19 70 66 122
70 78 147 232 178 356 31 122 44 233 52 448 5 119 11 171 18 168 6 -2 80 -21
164 -42z m412 -84 c75 -12 219 -24 322 -27 l186 -6 22 -70 c29 -92 26 -197 -8
-245 -58 -80 -195 -103 -303 -50 -65 32 -158 114 -216 190 -33 42 -146 228
-140 228 1 0 63 -9 137 -20z m1545 -994 c160 -47 397 -101 575 -131 52 -9 96
-18 97 -19 2 -2 -1 -25 -6 -53 -6 -28 -15 -126 -21 -219 -32 -498 -52 -627
-105 -680 -35 -35 -78 -32 -108 9 -46 61 -68 119 -103 270 -57 252 -98 351
-168 409 -28 22 -84 35 -121 28 -21 -4 -34 0 -45 12 -8 9 -58 29 -110 43 -76
21 -167 59 -272 113 -16 8 -7 -26 13 -52 28 -35 111 -77 235 -116 l101 -32
-30 -31 c-42 -44 -84 -140 -96 -217 -6 -36 -11 -137 -11 -225 0 -216 -12 -313
-47 -376 -38 -70 -86 -111 -121 -103 -73 18 -103 80 -202 428 -17 60 -43 135
-57 165 -48 100 -152 190 -221 191 -30 0 -206 83 -244 115 -35 29 -43 27 -34
-9 7 -28 48 -62 126 -105 30 -17 47 -31 41 -35 -38 -24 -81 -189 -101 -392
-35 -352 -85 -487 -209 -561 -105 -63 -186 -49 -273 45 -61 67 -94 151 -153
389 -40 159 -65 240 -94 298 -46 93 -98 157 -141 175 l-30 12 45 30 c62 41
105 83 105 102 0 21 -6 20 -44 -9 -18 -14 -70 -47 -114 -73 -135 -80 -212
-186 -247 -336 -8 -33 -23 -135 -35 -226 -11 -91 -26 -188 -34 -217 -48 -179
-159 -221 -296 -113 -87 69 -138 192 -200 481 -47 220 -75 323 -97 357 -8 13
-12 26 -10 29 3 2 65 29 138 58 119 49 193 94 177 110 -3 3 -47 -12 -97 -35
-51 -22 -136 -55 -189 -74 -53 -19 -110 -41 -127 -50 -16 -9 -35 -16 -41 -16
-6 0 -30 -20 -53 -45 -29 -31 -74 -111 -145 -258 -115 -235 -164 -305 -207
-294 -56 14 -80 137 -60 304 15 116 52 296 85 408 l23 80 116 12 c197 21 340
65 554 170 l133 65 82 -35 c174 -75 473 -145 708 -168 131 -12 405 -6 555 12
361 45 708 186 930 378 53 45 76 60 95 57 14 -2 97 -24 185 -50z m-9 -1097
c205 -94 425 -141 508 -109 23 8 26 6 40 -38 25 -75 37 -151 37 -238 0 -212
-94 -402 -295 -591 -115 -109 -249 -197 -441 -289 -275 -132 -315 -141 -381
-86 -160 132 -336 438 -360 624 -5 43 -5 43 46 76 68 44 95 100 87 184 -9 101
-69 195 -182 284 l-39 30 13 72 13 72 81 -65 c207 -164 394 -272 490 -282 49
-5 64 -2 113 23 90 46 141 125 164 254 18 103 20 110 29 110 4 0 39 -14 77
-31z m-1728 -196 c46 -172 79 -240 154 -320 43 -45 68 -80 68 -94 0 -13 -24
-194 -54 -404 -30 -209 -58 -409 -63 -445 l-8 -65 -55 -12 c-266 -60 -633 -65
-900 -11 -30 6 -58 14 -62 17 -17 15 -40 393 -45 746 l-5 380 43 -49 c61 -69
122 -106 176 -106 54 0 147 41 193 84 63 60 506 366 529 366 4 0 17 -39 29
-87z m788 -85 c81 -74 121 -164 104 -229 -19 -69 -78 -107 -316 -199 -149 -57
-205 -90 -275 -160 -38 -38 -48 -44 -44 -27 2 12 12 74 20 137 25 183 17 166
85 173 127 11 265 124 330 270 19 42 38 77 43 77 4 0 28 -19 53 -42z m-56
-468 c0 -40 64 -219 112 -313 60 -117 118 -198 210 -293 l69 -72 -37 -6 c-31
-6 -44 -2 -89 28 -72 47 -177 147 -222 210 -83 116 -147 159 -205 137 -92 -35
-89 -179 8 -329 24 -37 39 -68 34 -70 -15 -6 -120 28 -172 54 -59 30 -117 86
-143 139 -15 30 -20 61 -20 125 0 78 3 90 34 148 19 36 59 86 92 116 49 45 78
62 186 104 70 28 131 48 135 46 4 -3 8 -14 8 -24z m-37 -452 c51 -69 146 -166
211 -216 16 -12 27 -24 25 -26 -2 -2 -52 -7 -110 -11 l-106 -7 -31 40 c-60 75
-101 185 -88 236 5 22 31 56 41 56 2 0 28 -33 58 -72z m-628 -490 c-28 -262
-70 -440 -131 -567 -73 -151 -164 -227 -299 -252 -207 -38 -358 108 -458 441
-51 169 -94 387 -80 408 13 21 44 21 247 3 171 -16 471 -9 601 13 137 23 128
26 120 -46z"/>
<path d="M4476 8499 c-246 -37 -512 -178 -556 -293 -16 -44 -5 -43 47 5 208
194 512 261 720 159 34 -17 71 -42 82 -57 l21 -25 10 28 c16 40 4 73 -40 115
-62 59 -171 85 -284 68z"/>
<path d="M4295 7876 c-185 -58 -334 -279 -419 -624 -42 -168 -60 -323 -44
-378 22 -80 293 -256 550 -359 183 -72 290 -96 450 -102 l138 -6 9 24 c36 95
47 546 18 719 -32 188 -93 358 -168 467 -133 193 -374 310 -534 259z m159
-132 c205 -53 360 -214 435 -453 55 -174 65 -253 66 -501 0 -124 -4 -251 -8
-282 l-8 -58 -44 0 c-80 0 -277 40 -399 80 -209 70 -406 181 -544 305 -73 67
-73 63 -37 244 76 378 202 612 360 669 44 15 109 14 179 -4z"/>
<path d="M4294 7350 c-22 -11 -56 -36 -74 -55 l-34 -35 53 0 c45 0 57 -4 82
-29 53 -53 30 -130 -35 -117 -41 8 -74 42 -88 88 -14 46 -21 41 -42 -31 -20
-69 -21 -192 -1 -258 75 -252 344 -232 421 32 25 87 16 224 -18 290 -63 121
-163 165 -264 115z"/>
<path d="M5551 6449 c-24 -4 -63 -18 -88 -30 -58 -28 -152 -115 -182 -169
l-24 -43 64 49 c139 106 278 137 381 85 58 -30 79 -51 117 -120 26 -48 30 -51
36 -31 12 38 -5 107 -38 157 -53 79 -166 123 -266 102z"/>
<path d="M4428 6320 c-42 -13 -82 -45 -103 -84 -26 -48 -13 -56 25 -16 17 18
33 31 35 28 3 -3 0 -29 -5 -59 -6 -30 -11 -101 -11 -159 0 -270 121 -477 337
-581 58 -27 69 -29 95 -19 33 14 37 25 13 34 -36 14 1 147 64 232 40 54 136
104 201 104 25 0 100 -14 165 -30 147 -37 296 -51 420 -40 120 12 175 24 195
46 15 15 15 16 -1 11 -52 -18 -194 -29 -307 -24 -315 15 -669 167 -995 427
-71 56 -77 64 -59 71 27 10 40 48 22 60 -17 11 -55 10 -91 -1z m185 -606 c20
-13 50 -43 67 -65 30 -43 66 -126 58 -135 -12 -11 -62 19 -113 67 -55 52 -107
125 -120 167 l-7 23 39 -16 c21 -9 55 -27 76 -41z"/>
<path d="M4535 1374 c-123 -24 -338 -29 -433 -10 -45 9 -87 14 -92 11 -15 -9
-12 -43 10 -124 41 -146 116 -250 212 -291 68 -29 180 -25 246 9 106 54 202
195 217 316 7 50 5 59 -16 81 -25 27 -42 28 -144 8z m-160 -100 c88 3 172 8
188 12 19 5 27 2 27 -7 0 -30 -51 -120 -91 -164 -138 -149 -314 -113 -378 78
-32 94 -31 96 37 85 31 -6 129 -7 217 -4z"/>
<path d="M3143 4622 c-323 -115 -258 -587 83 -610 106 -7 163 15 240 92 47 48
64 73 78 120 49 157 -24 323 -173 389 -64 28 -163 32 -228 9z m212 -68 c46
-21 98 -72 121 -117 27 -51 30 -155 7 -208 -63 -141 -218 -200 -351 -133 -208
104 -178 401 48 475 38 13 133 3 175 -17z"/>
<path d="M3040 4330 c0 -93 1 -100 20 -100 18 0 20 7 20 63 1 67 1 67 44 3 12
-19 14 -18 39 19 l27 40 0 -63 c0 -59 1 -62 25 -62 l25 0 0 100 c0 100 0 100
-25 100 -18 0 -32 -11 -52 -41 l-27 -41 -24 41 c-17 30 -31 41 -48 41 -24 0
-24 -1 -24 -100z"/>
<path d="M3290 4330 c0 -93 1 -100 20 -100 16 0 20 7 20 30 0 23 5 30 19 30
11 0 29 -13 41 -30 14 -20 30 -30 46 -30 l26 0 -22 34 -21 35 20 20 c27 27 27
65 1 91 -16 16 -33 20 -85 20 l-65 0 0 -100z m118 33 c3 -17 -3 -24 -22 -29
-37 -9 -56 2 -56 31 0 24 3 26 38 23 29 -2 38 -7 40 -25z"/>
</g>
</svg>
